<svg data-v-fde0c5aa="" xmlns="http://www.w3.org/2000/svg" viewBox="0 0 300 300" class="iconLeft"><!----><defs data-v-fde0c5aa=""><linearGradient data-v-fde0c5aa="" gradientTransform="rotate(25)" id="c1556493-4d7b-44fa-9ebc-6a220257aef9" x1="0%" y1="0%" x2="100%" y2="0%"><stop data-v-fde0c5aa="" offset="0%" stop-color="#276D8E" stop-opacity="1"></stop><stop data-v-fde0c5aa="" offset="100%" stop-color="#DDDFD4" stop-opacity="1"></stop></linearGradient></defs><rect data-v-fde0c5aa="" fill="url(#c1556493-4d7b-44fa-9ebc-6a220257aef9)" x="0" y="0" width="300px" height="300px" class="logo-background-square"></rect><defs data-v-fde0c5aa=""><!----></defs><g data-v-fde0c5aa="" id="7b1b51b9-75af-4608-bbe8-017e6a9e6b1b" fill="#ffffff" transform="matrix(1.7890310155817375,0,0,1.7890310155817375,89.29065779746898,127.21669063078163)"><path d="M0.77 17.18L0.77 8.43L3.54 8.43L5.45 11.49L5.45 11.49Q5.80 12.08 5.80 12.49L5.80 12.49L5.88 12.49L5.88 8.43L8.68 8.43L8.68 17.18L5.91 17.18L4.00 14.11L4.00 14.11Q3.65 13.52 3.65 13.12L3.65 13.12L3.57 13.12L3.57 17.18L0.77 17.18ZM15.55 17.18L15.20 15.79L12.67 15.79L12.32 17.18L9.52 17.18L11.76 8.43L16.11 8.43L18.35 17.18L15.55 17.18ZM13.20 13.76L14.67 13.76L14 11.12L13.87 11.12L13.20 13.76ZM22.76 10.74L22.76 17.18L19.96 17.18L19.96 10.74L18.00 10.74L18.00 8.43L24.72 8.43L24.72 10.74L22.76 10.74ZM29.22 17.39L29.22 17.39Q27.65 17.39 26.84 17.09L26.84 17.09L26.84 17.09Q26.03 16.79 25.69 16.05L25.69 16.05L25.69 16.05Q25.35 15.32 25.35 13.90L25.35 13.90L25.35 8.43L28.15 8.43L28.15 14.99L29.27 14.99L29.27 14.99Q29.90 14.99 30.11 14.85L30.11 14.85L30.11 14.85Q30.31 14.70 30.31 14.25L30.31 14.25L30.31 8.43L33.11 8.43L33.11 13.90L33.11 13.90Q33.11 15.30 32.77 16.04L32.77 16.04L32.77 16.04Q32.44 16.79 31.61 17.09L31.61 17.09L31.61 17.09Q30.79 17.39 29.22 17.39L29.22 17.39ZM42.14 17.18L39.10 17.18L37.91 14.64L37.17 14.64L37.17 17.18L34.37 17.18L34.37 8.43L38.43 8.43L38.43 8.43Q40.22 8.43 41.01 9.18L41.01 9.18L41.01 9.18Q41.79 9.94 41.79 11.66L41.79 11.66L41.79 11.66Q41.79 13.47 40.71 14.15L40.71 14.15L42.14 17.18ZM37.17 10.74L37.17 12.61L38.30 12.61L38.30 12.61Q38.61 12.61 38.73 12.49L38.73 12.49L38.73 12.49Q38.85 12.36 38.85 12.03L38.85 12.03L38.85 11.33L38.85 11.33Q38.85 10.99 38.73 10.86L38.73 10.86L38.73 10.86Q38.61 10.74 38.30 10.74L38.30 10.74L37.17 10.74ZM45.92 13.82L45.92 14.87L49.21 14.87L49.21 17.18L43.12 17.18L43.12 8.43L49.28 8.43L48.93 10.74L45.92 10.74L45.92 11.79L48.72 11.79L48.72 13.82L45.92 13.82ZM51.03 12.56L50.33 9.69L50.33 8.46L50.33 8.46Q50.33 8.08 50.85 8.08L50.85 8.08L52.47 8.08L52.47 8.08Q52.99 8.08 52.99 8.46L52.99 8.46L52.99 9.69L52.29 12.56L51.03 12.56ZM54.36 14.57L54.36 14.57Q55.76 15.02 57.20 15.02L57.20 15.02L57.20 15.02Q57.92 15.02 58.34 14.95L58.34 14.95L58.34 14.18L57.08 14.07L57.08 14.07Q55.99 13.97 55.34 13.67L55.34 13.67L55.34 13.67Q54.68 13.37 54.39 12.81L54.39 12.81L54.39 12.81Q54.10 12.25 54.10 11.35L54.10 11.35L54.10 11.35Q54.10 10.18 54.43 9.50L54.43 9.50L54.43 9.50Q54.77 8.82 55.52 8.52L55.52 8.52L55.52 8.52Q56.27 8.22 57.58 8.22L57.58 8.22L57.58 8.22Q59.30 8.22 60.87 8.64L60.87 8.64L60.52 10.88L60.52 10.88Q59.79 10.72 59.29 10.66L59.29 10.66L59.29 10.66Q58.79 10.60 58.25 10.60L58.25 10.60L58.25 10.60Q57.54 10.60 57.11 10.67L57.11 10.67L57.11 11.42L58.11 11.52L58.11 11.52Q59.82 11.69 60.59 12.37L60.59 12.37L60.59 12.37Q61.35 13.05 61.35 14.39L61.35 14.39L61.35 14.39Q61.35 15.95 60.45 16.67L60.45 16.67L60.45 16.67Q59.56 17.39 57.62 17.39L57.62 17.39L57.62 17.39Q55.64 17.39 53.97 16.88L53.97 16.88L54.36 14.57ZM64.92 12.81L64.92 12.81Q64.92 11.05 65.31 10.06L65.31 10.06L65.31 10.06Q65.70 9.07 66.61 8.65L66.61 8.65L66.61 8.65Q67.51 8.22 69.12 8.22L69.12 8.22L69.12 8.22Q70.73 8.22 71.63 8.65L71.63 8.65L71.63 8.65Q72.53 9.07 72.93 10.06L72.93 10.06L72.93 10.06Q73.32 11.05 73.32 12.81L73.32 12.81L73.32 12.81Q73.32 14.57 72.93 15.55L72.93 15.55L72.93 15.55Q72.53 16.53 71.63 16.96L71.63 16.96L71.63 16.96Q70.73 17.39 69.12 17.39L69.12 17.39L69.12 17.39Q67.51 17.39 66.61 16.96L66.61 16.96L66.61 16.96Q65.70 16.53 65.31 15.55L65.31 15.55L65.31 15.55Q64.92 14.57 64.92 12.81L64.92 12.81ZM67.93 14.99L69.20 14.99L69.20 14.99Q69.83 14.99 70.07 14.83L70.07 14.83L70.07 14.83Q70.31 14.67 70.31 14.25L70.31 14.25L70.31 10.61L69.02 10.61L69.02 10.61Q68.40 10.61 68.17 10.77L68.17 10.77L68.17 10.77Q67.93 10.93 67.93 11.35L67.93 11.35L67.93 14.99ZM83.59 8.43L86.39 8.43L85.23 17.18L81.06 17.18L80.25 11.90L79.42 17.18L75.25 17.18L74.09 8.43L76.89 8.43L77.63 14.49L77.76 14.49L78.72 8.43L81.76 8.43L82.73 14.49L82.85 14.49L83.59 8.43ZM87.51 17.18L87.51 8.43L90.29 8.43L92.19 11.49L92.19 11.49Q92.54 12.08 92.54 12.49L92.54 12.49L92.62 12.49L92.62 8.43L95.42 8.43L95.42 17.18L92.65 17.18L90.75 14.11L90.75 14.11Q90.40 13.52 90.40 13.12L90.40 13.12L90.31 13.12L90.31 17.18L87.51 17.18Z"></path></g><defs data-v-fde0c5aa=""><!----></defs><g data-v-fde0c5aa="" id="cac7f030-c3b8-4bae-942a-3e2cdb09b1f7" stroke="none" fill="#ffffff" transform="matrix(0.37668211645343846,0,0,0.37668211645343846,40,132.2036538104972)"><path d="M0 80.408l40.816-66.326 30.803 45.911-9.555 9.378 1.201 1.854 18.367-18.367L100 80.408H0zm40.985-60.201L27.208 42.271l5.934-3.629 2.108 10.983 4.265-13.435 7.404 13.189.588-11.081 11.031 9.023-17.553-27.114z"></path></g><!----></svg>